<?xml version="1.0" encoding="utf-8"?>
<!-- Generator: Adobe Illustrator 21.0.0, SVG Export Plug-In . SVG Version: 6.00 Build 0)  -->
<svg version="1.1" id="Layer_1" xmlns="http://www.w3.org/2000/svg" xmlns:xlink="http://www.w3.org/1999/xlink" x="0px" y="0px"
	 viewBox="0 0 1440 909" style="enable-background:new 0 0 1440 909;" xml:space="preserve">
<style type="text/css">
	.st0{fill:none;stroke:#FFF1C5;stroke-width:60;stroke-miterlimit:10;}
	.st1{fill:none;stroke:#FCCD2F;stroke-width:3;stroke-miterlimit:10;}
	.st2{fill:#1E2550;}
</style>
<circle class="st0" cx="-75.1" cy="174.4" r="266.2"/>
<circle class="st0" cx="1256.7" cy="981.2" r="311.4"/>
<circle class="st1" cx="260" cy="770.1" r="7.4"/>
<circle class="st1" cx="148.2" cy="646.6" r="13.1"/>
<circle class="st1" cx="148.2" cy="646.6" r="7.4"/>
<circle class="st1" cx="1256" cy="129" r="13.1"/>
<circle class="st1" cx="1256" cy="129" r="7.4"/>
<rect x="212.6" y="162.9" class="st2" width="2.9" height="2.9"/>
<rect x="232" y="162.9" class="st2" width="2.9" height="2.9"/>
<rect x="251.2" y="162.9" class="st2" width="2.9" height="2.9"/>
<rect x="193.3" y="162.9" class="st2" width="2.9" height="2.9"/>
<rect x="212.6" y="182.2" class="st2" width="2.9" height="2.9"/>
<rect x="232" y="182.2" class="st2" width="2.9" height="2.9"/>
<rect x="251.2" y="182.2" class="st2" width="2.9" height="2.9"/>
<rect x="193.3" y="182.2" class="st2" width="2.9" height="2.9"/>
<rect x="212.8" y="201.4" class="st2" width="2.9" height="2.9"/>
<rect x="232.2" y="201.4" class="st2" width="2.9" height="2.9"/>
<rect x="251.4" y="201.4" class="st2" width="2.9" height="2.9"/>
<rect x="193.5" y="201.4" class="st2" width="2.9" height="2.9"/>
<rect x="212.8" y="220.7" class="st2" width="2.9" height="2.9"/>
<rect x="232.2" y="220.7" class="st2" width="2.9" height="2.9"/>
<rect x="251.4" y="220.7" class="st2" width="2.9" height="2.9"/>
<rect x="193.5" y="220.7" class="st2" width="2.9" height="2.9"/>
<rect x="213.1" y="239.8" class="st2" width="2.9" height="2.9"/>
<rect x="232.4" y="239.8" class="st2" width="2.9" height="2.9"/>
<rect x="251.6" y="239.8" class="st2" width="2.9" height="2.9"/>
<rect x="193.7" y="239.8" class="st2" width="2.9" height="2.9"/>
<rect x="213.1" y="259.2" class="st2" width="2.9" height="2.9"/>
<rect x="232.4" y="259.2" class="st2" width="2.9" height="2.9"/>
<rect x="251.6" y="259.2" class="st2" width="2.9" height="2.9"/>
<rect x="193.7" y="259.2" class="st2" width="2.9" height="2.9"/>
<rect x="213.3" y="278.3" class="st2" width="2.9" height="2.9"/>
<rect x="232.6" y="278.3" class="st2" width="2.9" height="2.9"/>
<rect x="251.8" y="278.3" class="st2" width="2.9" height="2.9"/>
<rect x="193.9" y="278.3" class="st2" width="2.9" height="2.9"/>
<rect x="213.3" y="297.6" class="st2" width="2.9" height="2.9"/>
<rect x="232.6" y="297.6" class="st2" width="2.9" height="2.9"/>
<rect x="251.8" y="297.6" class="st2" width="2.9" height="2.9"/>
<rect x="193.9" y="297.6" class="st2" width="2.9" height="2.9"/>
<rect x="1301.6" y="602.7" class="st2" width="2.9" height="2.9"/>
<rect x="1320.9" y="602.7" class="st2" width="2.9" height="2.9"/>
<rect x="1340.1" y="602.7" class="st2" width="2.9" height="2.9"/>
<rect x="1282.2" y="602.7" class="st2" width="2.9" height="2.9"/>
<rect x="1301.6" y="622.1" class="st2" width="2.9" height="2.9"/>
<rect x="1320.9" y="622.1" class="st2" width="2.9" height="2.9"/>
<rect x="1340.1" y="622.1" class="st2" width="2.9" height="2.9"/>
<rect x="1282.2" y="622.1" class="st2" width="2.9" height="2.9"/>
<rect x="1301.8" y="641.2" class="st2" width="2.9" height="2.9"/>
<rect x="1321.1" y="641.2" class="st2" width="2.9" height="2.9"/>
<rect x="1340.3" y="641.2" class="st2" width="2.9" height="2.9"/>
<rect x="1282.4" y="641.2" class="st2" width="2.9" height="2.9"/>
<rect x="1301.8" y="660.5" class="st2" width="2.9" height="2.9"/>
<rect x="1321.1" y="660.5" class="st2" width="2.9" height="2.9"/>
<rect x="1340.3" y="660.5" class="st2" width="2.9" height="2.9"/>
<rect x="1282.4" y="660.5" class="st2" width="2.9" height="2.9"/>
<rect x="1302" y="679.7" class="st2" width="2.9" height="2.9"/>
<rect x="1321.3" y="679.7" class="st2" width="2.9" height="2.9"/>
<rect x="1340.5" y="679.7" class="st2" width="2.9" height="2.9"/>
<rect x="1282.6" y="679.7" class="st2" width="2.9" height="2.9"/>
<rect x="1302" y="699" class="st2" width="2.9" height="2.9"/>
<rect x="1321.3" y="699" class="st2" width="2.9" height="2.9"/>
<rect x="1340.5" y="699" class="st2" width="2.9" height="2.9"/>
<rect x="1282.6" y="699" class="st2" width="2.9" height="2.9"/>
<rect x="1302.2" y="718.1" class="st2" width="2.9" height="2.9"/>
<rect x="1321.5" y="718.1" class="st2" width="2.9" height="2.9"/>
<rect x="1340.7" y="718.1" class="st2" width="2.9" height="2.9"/>
<rect x="1282.8" y="718.1" class="st2" width="2.9" height="2.9"/>
<rect x="1302.2" y="737.5" class="st2" width="2.9" height="2.9"/>
<rect x="1321.5" y="737.5" class="st2" width="2.9" height="2.9"/>
<rect x="1340.7" y="737.5" class="st2" width="2.9" height="2.9"/>
<rect x="1282.8" y="737.5" class="st2" width="2.9" height="2.9"/>
</svg>
