<?xml version="1.0" encoding="utf-8"?>
<!-- Generator: Adobe Illustrator 21.0.0, SVG Export Plug-In . SVG Version: 6.00 Build 0)  -->
<svg version="1.1" id="Layer_1" xmlns="http://www.w3.org/2000/svg" xmlns:xlink="http://www.w3.org/1999/xlink" x="0px" y="0px"
	 viewBox="0 0 708 587" style="enable-background:new 0 0 708 587;" xml:space="preserve">
<style type="text/css">
	.st0{fill:#FFC107;}
	.st1{fill:none;stroke:#343A40;stroke-width:3;stroke-miterlimit:10;}
	.st2{fill:#FFC107;stroke:#343A40;stroke-width:3;stroke-miterlimit:10;}
	.st3{fill:none;stroke:#1E2550;stroke-width:7;stroke-linejoin:round;stroke-miterlimit:10;}
	.st4{fill:none;stroke:#343A40;stroke-width:7;stroke-linejoin:round;stroke-miterlimit:10;}
</style>
<polygon class="st0" points="588,387 508,427 547,384 531,325 "/>
<polygon class="st0" points="486.5,506.5 410.5,535.5 458.5,492.5 501.5,331.5 "/>
<circle class="st1" cx="603.3" cy="158.6" r="5"/>
<circle class="st1" cx="589.2" cy="158.6" r="5"/>
<circle class="st1" cx="617.5" cy="158.6" r="5"/>
<circle class="st2" cx="335.5" cy="103.7" r="9"/>
<circle class="st1" cx="687.2" cy="255" r="15.9"/>
<circle class="st1" cx="687.2" cy="255" r="9"/>
<circle class="st2" cx="618" cy="454.6" r="9"/>
<circle class="st1" cx="412.2" cy="20" r="15.9"/>
<circle class="st1" cx="412.2" cy="20" r="9"/>
<line class="st1" x1="492.7" y1="49.2" x2="512" y2="68.5"/>
<line class="st1" x1="512" y1="49.2" x2="492.7" y2="68.5"/>
<line class="st1" x1="105" y1="122.1" x2="118" y2="135"/>
<line class="st1" x1="118" y1="122.1" x2="105" y2="135"/>
<line class="st1" x1="33.7" y1="408.2" x2="53" y2="427.5"/>
<line class="st1" x1="53" y1="408.2" x2="33.7" y2="427.5"/>
<polygon class="st1" points="48.5,260.2 17.7,260.2 2.2,286.9 17.7,313.6 48.5,313.6 63.9,286.9 "/>
<line class="st1" x1="33.1" y1="274.1" x2="33.1" y2="299.7"/>
<line class="st1" x1="20.3" y1="286.9" x2="45.8" y2="286.9"/>
<g>
	<path class="st1" d="M212.2,94.5l2.4-12.7c-0.9-0.9-1.5-2.2-1.5-3.6c0-2.9,2.4-5.3,5.3-5.3c2.9,0,5.3,2.4,5.3,5.3
		c0,1.4-0.6,2.7-1.5,3.6l2.4,12.7H212.2z"/>
	<path class="st1" d="M251.7,56.1c0,26.5-13.1,49.9-33.2,64.2c-20.1-14.2-33.2-37.7-33.2-64.2c0-0.8,0-1.6,0-2.4
		c4.1,2.8,9.1,4.4,14.4,4.4c7.4,0,14.1-3.1,18.8-8.1c4.7,5,11.4,8.1,18.8,8.1c5.4,0,10.3-1.6,14.4-4.4
		C251.7,54.5,251.7,55.3,251.7,56.1z"/>
	<path class="st1" d="M251.7,56.1c0,26.5-13.1,49.9-33.2,64.2c-20.1-14.2-33.2-37.7-33.2-64.2c0-0.8,0-1.6,0-2.4
		c4.1,2.8,9.1,4.4,14.4,4.4c7.4,0,14.1-3.1,18.8-8.1c4.7,5,11.4,8.1,18.8,8.1c5.4,0,10.3-1.6,14.4-4.4
		C251.7,54.5,251.7,55.3,251.7,56.1z"/>
</g>
<path class="st1" d="M657.8,161.4c0,7.1-3.2,13.4-8.3,17.6c-0.8,0.6-1.6,1.2-2.4,1.8c-2.6,1.5-5.6,2.4-8.8,2.4h-74.1
	c-9.5,0-17.2-7.7-17.2-17.2c0-4.7,1.9-9,5-12.1s7.4-5,12.1-5h3.8c-0.1-0.7-0.2-1.4-0.2-2.2c0-7.9,6.4-14.2,14.2-14.2
	c3.6,0,7,1.4,9.5,3.6c1.5-10.7,10.7-19,21.8-19c12,0,21.7,9.6,22,21.5C647.7,138.7,657.8,148.9,657.8,161.4z"/>
<polygon class="st3" points="505.5,300.5 342.5,358.4 322.5,365.5 172.5,288.5 345.5,247.5 "/>
<polygon class="st4" points="493.4,435.6 487.5,501.5 322.5,579.5 322.5,365.5 341.6,390.1 341.6,390.1 409.5,477.5 "/>
<polygon class="st4" points="322.5,365.5 322.5,579.5 183.5,495.5 180.9,445.8 229.5,475.5 "/>
<polygon class="st3" points="322.5,365.5 229.5,475.5 180.9,445.8 172.5,288.5 "/>
<polygon class="st4" points="345.5,247.5 342.5,358.4 322.5,365.5 229.5,475.5 180.9,445.8 172.5,288.5 "/>
<polygon class="st4" points="345.5,247.5 505.5,300.5 568.5,219.5 402.5,187.5 "/>
<polygon class="st4" points="112.5,216.5 172.5,288.5 345.5,247.5 286.5,187.5 "/>
<polygon class="st4" points="505.5,300.5 493.4,435.5 493.4,435.6 409.5,477.5 341.6,390.1 341.6,390.1 322.5,365.5 342.5,358.4 "/>
<polygon class="st4" points="589.5,387.5 493.4,435.5 505.5,300.5 "/>
<polygon class="st4" points="322.5,365.5 229.5,475.5 180.9,445.8 75.5,381.5 172.5,288.5 "/>
</svg>
