<?xml version="1.0" encoding="utf-8"?>
<!-- Generator: Adobe Illustrator 21.0.0, SVG Export Plug-In . SVG Version: 6.00 Build 0)  -->
<svg version="1.1" id="Layer_1" xmlns="http://www.w3.org/2000/svg" xmlns:xlink="http://www.w3.org/1999/xlink" x="0px" y="0px"
	 viewBox="0 0 711 599" style="enable-background:new 0 0 711 599;" xml:space="preserve">
<style type="text/css">
	.st0{fill:none;stroke:#343A40;stroke-width:3;stroke-miterlimit:10;}
	.st1{fill:#B21DF2;}
	.st2{fill:#FFC107;}
	.st3{fill:#343A40;}
	.st4{fill:#FFC107;stroke:#343A40;stroke-width:3;stroke-miterlimit:10;}
</style>
<circle class="st0" cx="652.3" cy="152.6" r="5"/>
<circle class="st0" cx="638.2" cy="152.6" r="5"/>
<circle class="st0" cx="666.5" cy="152.6" r="5"/>
<path class="st1" d="M264.7,211.2h21.4c-3.8,1-7.8,1.5-11.9,1.5h-9.5V211.2z"/>
<polygon class="st2" points="231.1,192.2 293,216 284.5,190.5 530.8,73.8 "/>
<g>
	<path class="st3" d="M532.2,78.8c-1.8,3.9-1.7,8.2-2.4,12.3c-4.7,30.1-9.3,60.2-13.9,90.3c-4.2,27.2-8.3,54.4-12.4,81.5
		c-1.6,10.5-3.2,21.1-4.9,31.6c-0.7,4.8-3.5,6.3-8.4,4.4c-28.6-10.8-57.2-21.7-85.8-32.5c-8.7-3.3-17.4-6.5-26.1-10
		c-2.5-1-3.3-0.4-4.2,2c-3.2,9.2-6.7,18.4-10.1,27.7c1.5,0.2,1.8-1.1,2.4-1.9c3.8-5,7.5-10.1,11.3-15.2c1.1-1.4,2.2-2.7,4.1-2.9
		c3.5-0.6,6.4,3.2,5.1,6.6c-0.4,1-1.1,1.9-1.8,2.8c-11,14.9-22.1,29.9-33.1,44.8c-1.5,2-3,4-5.9,3.6c-3.1-0.5-3.9-2.9-4.7-5.4
		c-9.1-28.2-18.3-56.4-27.4-84.7c-0.6-1.7-1.4-2.6-3.1-3.3c-28.5-10.9-56.9-21.9-85.3-32.8c-0.7-0.3-1.3-0.5-2-0.7
		c-2.1-0.9-3.6-2.3-3.6-4.8c0-2.4,1.4-3.9,3.6-4.8c5.7-2.2,11.3-4.4,17-6.6c94.3-36.5,188.7-73,283-109.5c4.6-1.8,5.7-1.5,8.6,1.9
		C532.2,75.2,532.2,77,532.2,78.8z M347.1,304c0.5-1.3,0.8-2,1-2.8c6.3-17.2,12.6-34.4,18.9-51.6c0.7-1.9,1.6-3.7,3-5.2
		c30-33.7,60-67.4,90-101c9.2-10.3,18.4-20.6,27.6-31c0.5-0.6,1.9-1.3,1.2-2.2c-0.9-1.1-1.7,0.4-2.5,0.8c-0.2,0.1-0.3,0.2-0.5,0.3
		c-40.7,29.5-81.3,59.1-122,88.6c-1.2,0.9-2.4,1.8-3.8,2.6c-2.4,1.4-4.7,0.7-6.2-1.3c-1.6-2.1-1.4-4.4,0.6-6.3
		c0.8-0.8,1.7-1.4,2.6-2.1c44-32,88.1-63.9,132.1-95.9c0.8-0.6,1.8-0.9,2.4-2.6c-84.4,32.7-168.3,65.2-253,97.9
		c1.7,0.7,2.5,1,3.4,1.3c24.9,9.6,49.7,19.1,74.6,28.6c3.3,1.3,5.3,3.2,6.3,6.7c1.5,5.5,3.4,10.8,5.2,16.2
		C334.3,264.5,340.6,283.9,347.1,304z M380.9,246.9c0.8,0.4,1.4,0.6,2,0.8c16.4,6.2,32.7,12.4,49.1,18.7c18.4,7,36.7,13.9,55.1,20.9
		c1.4,0.5,2.7,1.5,3.1-1.3c2.6-17.5,5.3-34.9,7.9-52.4c3.5-23.2,7.1-46.3,10.7-69.5c3.5-23,7.1-45.9,10.6-68.9
		c0.2-1,0.5-2.1-0.5-3.3C472.9,143.7,427,195.2,380.9,246.9z"/>
	<path class="st3" d="M342.5,204.5c2.1,0.3,3.6,1,4.4,2.9c0.9,1.9,0.7,3.7-0.7,5c-3.4,3.2-7.2,5.9-11.2,8.2c-2,1.2-4.2,0.4-5.7-1.5
		c-1.4-1.9-1.6-4.2,0.1-5.8c3.4-3.3,7.3-6,11.5-8.4C341.4,204.6,342,204.6,342.5,204.5z"/>
</g>
<g>
	<path class="st3" d="M154.8,500.1l8.4,7c4.3-5.2,8.7-10.3,13.1-15.4l-8.3-7.2C163.6,489.7,159.2,494.9,154.8,500.1z"/>
	<path class="st3" d="M132.1,529l8.9,6.4c3.9-5.4,8-10.7,12.1-15.9l-8.6-6.8C140.3,518,136.2,523.5,132.1,529z"/>
	<path class="st3" d="M112.8,560.7l10,4.4c2.5-5.6,5.8-11.3,9.3-16.8l-9.2-5.9C119.2,548.3,115.7,554.2,112.8,560.7z"/>
	<polygon class="st3" points="229,419 236.8,426.7 251,412.2 243.2,404.5 	"/>
	<polygon class="st3" points="203.7,445.4 211.7,452.9 225.6,438.2 217.7,430.6 	"/>
	<path class="st3" d="M179,472.2l8.2,7.3c4.5-5,9-10,13.6-15l-8.1-7.4C188.1,462.1,183.5,467.2,179,472.2z"/>
	<polygon class="st3" points="307.1,341.9 314.7,349.9 329.4,335.9 321.9,327.9 	"/>
	<polygon class="st3" points="280.8,367.3 288.4,375.1 303,361 295.4,353.1 	"/>
	<polygon class="st3" points="254.8,392.8 262.6,400.6 277,386.3 269.3,378.5 	"/>
</g>
<circle class="st4" cx="312.5" cy="109.7" r="9"/>
<circle class="st0" cx="400.8" cy="519.9" r="9"/>
<circle class="st0" cx="669.2" cy="243" r="15.9"/>
<circle class="st0" cx="669.2" cy="243" r="9"/>
<circle class="st4" cx="528" cy="366.6" r="9"/>
<g>
	<path class="st3" d="M223.8,239.8c-1,2.1-0.9,4.5-1.3,6.8c-2.6,16.5-5.1,33-7.6,49.4c-2.3,14.9-4.5,29.8-6.8,44.7
		c-0.9,5.8-1.8,11.5-2.7,17.3c-0.4,2.6-1.9,3.4-4.6,2.4c-15.7-5.9-31.3-11.9-47-17.8c-4.8-1.8-9.6-3.6-14.3-5.5
		c-1.4-0.6-1.8-0.2-2.3,1.1c-1.8,5.1-3.7,10.1-5.5,15.1c0.8,0.1,1-0.6,1.3-1c2.1-2.8,4.1-5.5,6.2-8.3c0.6-0.8,1.2-1.5,2.2-1.6
		c1.9-0.3,3.5,1.7,2.8,3.6c-0.2,0.6-0.6,1.1-1,1.5c-6,8.2-12.1,16.4-18.2,24.5c-0.8,1.1-1.6,2.2-3.2,1.9c-1.7-0.2-2.1-1.6-2.5-3
		c-5-15.5-10-30.9-15-46.4c-0.3-0.9-0.8-1.4-1.7-1.8c-15.6-6-31.2-12-46.7-18c-0.4-0.1-0.7-0.3-1.1-0.4c-1.2-0.5-2-1.3-2-2.6
		c0-1.3,0.8-2.2,2-2.6c3.1-1.2,6.2-2.4,9.3-3.6c51.7-20,103.3-40,155-60c2.5-1,3.1-0.8,4.7,1.1C223.8,237.8,223.8,238.8,223.8,239.8
		z M122.4,363.2c0.3-0.7,0.4-1.1,0.6-1.5c3.5-9.4,6.9-18.8,10.4-28.3c0.4-1.1,0.9-2,1.6-2.9c16.4-18.4,32.9-36.9,49.3-55.3
		c5-5.7,10.1-11.3,15.1-17c0.3-0.3,1-0.7,0.6-1.2c-0.5-0.6-0.9,0.2-1.4,0.4c-0.1,0-0.2,0.1-0.3,0.2c-22.3,16.2-44.5,32.3-66.8,48.5
		c-0.7,0.5-1.3,1-2.1,1.4c-1.3,0.8-2.6,0.4-3.4-0.7c-0.9-1.1-0.7-2.4,0.3-3.5c0.4-0.4,0.9-0.8,1.4-1.1c24.1-17.5,48.2-35,72.3-52.5
		c0.4-0.3,1-0.5,1.3-1.4c-46.2,17.9-92.2,35.7-138.6,53.6c0.9,0.4,1.4,0.5,1.9,0.7c13.6,5.2,27.2,10.5,40.9,15.7
		c1.8,0.7,2.9,1.7,3.5,3.7c0.8,3,1.9,5.9,2.8,8.9C115.3,341.5,118.8,352.2,122.4,363.2z M140.9,331.9c0.5,0.2,0.8,0.3,1.1,0.5
		c9,3.4,17.9,6.8,26.9,10.2c10.1,3.8,20.1,7.6,30.2,11.5c0.8,0.3,1.5,0.8,1.7-0.7c1.4-9.6,2.9-19.1,4.3-28.7
		c1.9-12.7,3.9-25.4,5.8-38.1c1.9-12.6,3.9-25.2,5.8-37.7c0.1-0.5,0.3-1.2-0.3-1.8C191.2,275.4,166.1,303.6,140.9,331.9z"/>
	<path class="st3" d="M119.9,308.6c1.1,0.1,1.9,0.6,2.4,1.6s0.4,2-0.4,2.8c-1.9,1.7-3.9,3.2-6.1,4.5c-1.1,0.6-2.3,0.2-3.1-0.8
		s-0.9-2.3,0.1-3.2c1.9-1.8,4-3.3,6.3-4.6C119.2,308.7,119.6,308.7,119.9,308.6z"/>
</g>
<g>
	<path class="st3" d="M52.1,439.9l4.6,3.8c2.4-2.8,4.8-5.6,7.2-8.4l-4.5-3.9C57,434.2,54.5,437,52.1,439.9z"/>
	<path class="st3" d="M39.7,455.7l4.9,3.5c2.1-3,4.4-5.9,6.6-8.7l-4.7-3.7C44.2,449.7,41.9,452.7,39.7,455.7z"/>
	<path class="st3" d="M29.1,473.1l5.5,2.4c1.4-3.1,3.2-6.2,5.1-9.2l-5.1-3.2C32.7,466.2,30.7,469.5,29.1,473.1z"/>
	<polygon class="st3" points="92.8,395.5 97.1,399.6 104.8,391.7 100.6,387.5 	"/>
	<polygon class="st3" points="78.9,409.9 83.3,414 90.9,406 86.6,401.8 	"/>
	<path class="st3" d="M65.4,424.6l4.5,4c2.5-2.7,5-5.5,7.5-8.2l-4.4-4.1C70.4,419.1,67.9,421.8,65.4,424.6z"/>
	<polygon class="st3" points="106.9,381.1 111.2,385.4 119.1,377.6 114.9,373.3 	"/>
</g>
<g>
	<path class="st3" d="M443,398.9c-0.7,1.6-0.7,3.4-1,5.1c-1.9,12.4-3.8,24.8-5.7,37.2c-1.7,11.2-3.4,22.4-5.1,33.6
		c-0.7,4.3-1.3,8.7-2,13c-0.3,2-1.4,2.6-3.5,1.8c-11.8-4.5-23.6-8.9-35.4-13.4c-3.6-1.4-7.2-2.7-10.8-4.1c-1-0.4-1.4-0.2-1.7,0.8
		c-1.3,3.8-2.8,7.6-4.2,11.4c0.6,0.1,0.8-0.4,1-0.8c1.6-2.1,3.1-4.2,4.6-6.3c0.4-0.6,0.9-1.1,1.7-1.2c1.5-0.2,2.7,1.3,2.1,2.7
		c-0.2,0.4-0.5,0.8-0.7,1.2c-4.6,6.2-9.1,12.3-13.7,18.5c-0.6,0.8-1.2,1.6-2.4,1.5c-1.3-0.2-1.6-1.2-1.9-2.2
		c-3.8-11.6-7.6-23.3-11.3-34.9c-0.2-0.7-0.6-1.1-1.3-1.3c-11.7-4.5-23.5-9-35.2-13.5c-0.3-0.1-0.6-0.2-0.8-0.3
		c-0.9-0.4-1.5-1-1.5-2s0.6-1.6,1.5-2c2.3-0.9,4.7-1.8,7-2.7c38.9-15.1,77.8-30.1,116.8-45.2c1.9-0.7,2.3-0.6,3.6,0.8
		C443,397.4,443,398.2,443,398.9z M366.7,491.8c0.2-0.5,0.3-0.8,0.4-1.1c2.6-7.1,5.2-14.2,7.8-21.3c0.3-0.8,0.7-1.5,1.2-2.2
		c12.4-13.9,24.8-27.8,37.1-41.7c3.8-4.3,7.6-8.5,11.4-12.8c0.2-0.3,0.8-0.6,0.5-0.9c-0.4-0.4-0.7,0.2-1,0.3c-0.1,0-0.1,0.1-0.2,0.1
		c-16.8,12.2-33.5,24.4-50.3,36.6c-0.5,0.4-1,0.8-1.5,1.1c-1,0.6-1.9,0.3-2.6-0.5c-0.7-0.9-0.6-1.8,0.2-2.6c0.3-0.3,0.7-0.6,1.1-0.9
		c18.2-13.2,36.3-26.4,54.5-39.6c0.3-0.2,0.8-0.4,1-1.1c-34.8,13.5-69.5,26.9-104.4,40.4c0.7,0.3,1,0.4,1.4,0.5
		c10.3,3.9,20.5,7.9,30.8,11.8c1.4,0.5,2.2,1.3,2.6,2.8c0.6,2.3,1.4,4.5,2.1,6.7C361.4,475.5,364,483.6,366.7,491.8z M380.6,468.3
		c0.3,0.2,0.6,0.3,0.8,0.3c6.8,2.6,13.5,5.1,20.3,7.7c7.6,2.9,15.2,5.8,22.7,8.6c0.6,0.2,1.1,0.6,1.3-0.5c1.1-7.2,2.2-14.4,3.3-21.6
		c1.5-9.6,2.9-19.1,4.4-28.7c1.5-9.5,2.9-18.9,4.4-28.4c0.1-0.4,0.2-0.9-0.2-1.3C418.5,425.7,399.6,446.9,380.6,468.3z"/>
	<path class="st3" d="M364.8,450.8c0.8,0.1,1.5,0.4,1.8,1.2c0.4,0.8,0.3,1.5-0.3,2.1c-1.4,1.3-3,2.4-4.6,3.4
		c-0.8,0.5-1.7,0.2-2.3-0.6c-0.6-0.8-0.7-1.7,0-2.4c1.4-1.4,3-2.5,4.7-3.5C364.3,450.8,364.6,450.8,364.8,450.8z"/>
</g>
<g>
	<path class="st3" d="M287.3,572.8l3.5,2.9c1.8-2.1,3.6-4.2,5.4-6.3l-3.4-3C290.9,568.5,289.1,570.6,287.3,572.8z"/>
	<path class="st3" d="M278,584.7l3.7,2.7c1.6-2.2,3.3-4.4,5-6.6l-3.5-2.8C281.3,580.2,279.6,582.4,278,584.7z"/>
	<path class="st3" d="M270,597.8l4.1,1.8c1-2.3,2.4-4.7,3.8-6.9l-3.8-2.4C272.6,592.6,271.2,595.1,270,597.8z"/>
	<polygon class="st3" points="317.9,539.3 321.1,542.5 327,536.5 323.8,533.3 	"/>
	<polygon class="st3" points="307.5,550.2 310.8,553.3 316.5,547.2 313.3,544.1 	"/>
	<path class="st3" d="M297.3,561.3l3.4,3c1.9-2.1,3.7-4.1,5.6-6.2L303,555C301,557.1,299.2,559.2,297.3,561.3z"/>
	<polygon class="st3" points="350.1,507.5 353.3,510.8 359.4,505 356.3,501.7 	"/>
	<polygon class="st3" points="339.3,517.9 342.4,521.2 348.5,515.4 345.3,512.1 	"/>
	<polygon class="st3" points="328.6,528.5 331.8,531.7 337.7,525.8 334.6,522.6 	"/>
</g>
<circle class="st0" cx="421.2" cy="19" r="15.9"/>
<circle class="st0" cx="421.2" cy="19" r="9"/>
<line class="st0" x1="93.3" y1="162" x2="112.5" y2="181.3"/>
<line class="st0" x1="112.5" y1="162" x2="93.3" y2="181.3"/>
<line class="st0" x1="567.7" y1="18.2" x2="587" y2="37.5"/>
<line class="st0" x1="587" y1="18.2" x2="567.7" y2="37.5"/>
<line class="st0" x1="609" y1="305.1" x2="622" y2="318"/>
<line class="st0" x1="622" y1="305.1" x2="609" y2="318"/>
<circle class="st4" cx="11.5" cy="311.7" r="9"/>
<line class="st0" x1="496.7" y1="501.2" x2="516" y2="520.5"/>
<line class="st0" x1="516" y1="501.2" x2="496.7" y2="520.5"/>
<polygon class="st0" points="606.5,399.2 575.7,399.2 560.2,425.9 575.7,452.6 606.5,452.6 621.9,425.9 "/>
<line class="st0" x1="591.1" y1="413.1" x2="591.1" y2="438.7"/>
<line class="st0" x1="578.3" y1="425.9" x2="603.8" y2="425.9"/>
<g>
	<path class="st0" d="M179.2,108.9l2.4-12.7c-0.9-0.9-1.5-2.2-1.5-3.6c0-2.9,2.4-5.3,5.3-5.3c2.9,0,5.3,2.4,5.3,5.3
		c0,1.4-0.6,2.7-1.5,3.6l2.4,12.7H179.2z"/>
	<path class="st0" d="M218.7,70.5c0,26.5-13.1,49.9-33.2,64.2c-20.1-14.2-33.2-37.7-33.2-64.2c0-0.8,0-1.6,0-2.4
		c4.1,2.8,9.1,4.4,14.4,4.4c7.4,0,14.1-3.1,18.8-8.1c4.7,5,11.4,8.1,18.8,8.1c5.4,0,10.3-1.6,14.4-4.4
		C218.7,68.9,218.7,69.7,218.7,70.5z"/>
	<path class="st0" d="M218.7,70.5c0,26.5-13.1,49.9-33.2,64.2c-20.1-14.2-33.2-37.7-33.2-64.2c0-0.8,0-1.6,0-2.4
		c4.1,2.8,9.1,4.4,14.4,4.4c7.4,0,14.1-3.1,18.8-8.1c4.7,5,11.4,8.1,18.8,8.1c5.4,0,10.3-1.6,14.4-4.4
		C218.7,68.9,218.7,69.7,218.7,70.5z"/>
</g>
<path class="st0" d="M706.8,155.4c0,7.1-3.2,13.4-8.3,17.6c-0.8,0.6-1.6,1.2-2.4,1.8c-2.6,1.5-5.6,2.4-8.8,2.4h-74.1
	c-9.5,0-17.2-7.7-17.2-17.2c0-4.7,1.9-9,5-12.1s7.4-5,12.1-5h3.8c-0.1-0.7-0.2-1.4-0.2-2.2c0-7.9,6.4-14.2,14.2-14.2
	c3.6,0,7,1.4,9.5,3.6c1.5-10.7,10.7-19,21.8-19c12,0,21.7,9.6,22,21.5C696.7,132.7,706.8,142.9,706.8,155.4z"/>
</svg>
